<svg id="svg" version="1.1" xmlns="http://www.w3.org/2000/svg" xmlns:xlink="http://www.w3.org/1999/xlink" width="400" height="245.53314121037465" viewBox="0, 0, 400,245.53314121037465"><g id="svgg"><path id="path0" d="M244.936 42.005 C 243.990 42.115,242.001 42.329,240.516 42.480 C 233.535 43.192,224.036 45.711,217.925 48.472 C 216.484 49.123,210.546 52.067,209.822 52.490 C 193.439 62.050,180.013 77.254,174.101 92.940 C 173.796 93.751,173.438 94.621,173.307 94.875 C 172.060 97.287,168.716 110.081,168.694 112.523 C 168.693 112.624,168.057 112.711,167.281 112.716 C 166.008 112.724,164.731 112.949,162.018 113.644 C 152.624 116.051,146.147 129.132,150.020 137.876 C 150.139 138.146,150.505 138.975,150.832 139.718 C 153.764 146.370,160.749 150.482,168.650 150.206 C 170.956 150.125,171.946 150.173,171.999 150.368 C 172.258 151.315,174.460 157.178,174.823 157.888 C 175.065 158.361,175.885 160.018,176.645 161.572 C 181.806 172.122,189.301 181.317,199.269 189.331 C 202.243 191.721,203.273 192.511,203.416 192.511 C 203.487 192.511,204.350 193.055,205.333 193.719 C 228.393 209.312,261.141 211.454,286.311 199.017 C 287.816 198.273,291.176 196.477,291.958 195.998 C 292.431 195.708,293.149 195.286,293.554 195.059 C 294.251 194.670,297.143 192.724,299.570 191.010 C 304.856 187.280,315.151 176.902,317.373 173.065 C 317.508 172.831,318.185 171.835,318.878 170.851 C 319.571 169.866,320.359 168.674,320.628 168.201 C 320.897 167.729,321.593 166.568,322.174 165.623 C 324.258 162.233,327.093 155.977,328.461 151.750 C 328.789 150.737,329.263 149.355,329.515 148.680 C 329.766 148.005,330.044 147.121,330.132 146.716 C 330.219 146.311,330.400 145.565,330.533 145.058 L 330.774 144.138 332.439 144.138 C 337.694 144.138,342.540 140.326,343.894 135.127 C 345.684 128.257,341.627 121.679,334.500 119.896 C 333.541 119.656,332.965 119.384,332.965 119.172 C 332.965 118.110,332.160 111.340,331.861 109.883 C 328.383 92.960,322.026 80.213,311.228 68.508 C 308.047 65.061,299.859 57.704,299.202 57.704 C 299.132 57.704,298.274 57.113,297.297 56.391 C 296.319 55.668,295.184 54.905,294.776 54.694 C 294.367 54.483,293.428 53.907,292.689 53.414 C 291.129 52.373,282.969 48.325,281.522 47.875 C 280.982 47.707,280.098 47.374,279.558 47.136 C 271.331 43.512,254.033 40.949,244.936 42.005 M258.809 43.725 C 261.234 43.949,262.791 44.195,267.526 45.101 C 270.450 45.660,275.733 47.224,279.067 48.517 C 280.688 49.146,282.400 49.807,282.873 49.986 C 284.384 50.557,289.798 53.378,292.049 54.765 C 293.246 55.504,294.585 56.329,295.024 56.599 C 298.187 58.545,303.115 62.491,306.665 65.920 C 315.114 74.083,320.718 82.312,325.742 93.934 C 328.025 99.216,330.243 107.915,331.123 115.040 C 331.682 119.563,331.690 119.507,330.448 119.709 C 324.640 120.653,320.724 124.596,319.931 130.298 C 319.147 135.931,322.299 141.352,327.493 143.306 C 328.409 143.651,329.188 143.963,329.224 143.999 C 329.336 144.109,328.041 148.883,327.689 149.662 C 327.505 150.068,327.279 150.731,327.185 151.136 C 326.273 155.080,320.840 165.642,316.788 171.350 C 297.963 197.866,266.254 210.309,233.699 203.955 C 231.976 203.618,229.821 203.110,228.911 202.825 C 224.455 201.429,221.023 200.276,220.135 199.877 C 219.595 199.634,218.103 198.971,216.820 198.403 C 212.720 196.590,207.571 193.645,204.155 191.160 C 203.598 190.755,202.891 190.258,202.583 190.055 C 197.407 186.651,188.065 177.140,184.033 171.171 C 183.631 170.576,182.924 169.526,182.462 168.838 C 179.586 164.562,176.276 158.000,174.276 152.609 C 173.126 149.508,173.085 149.729,174.948 148.938 C 179.064 147.188,183.384 143.100,184.673 139.735 C 184.909 139.118,185.277 138.281,185.490 137.876 C 185.703 137.471,185.879 136.891,185.879 136.587 L 185.881 136.034 236.832 136.034 C 270.556 136.034,287.784 135.952,287.784 135.789 C 287.784 135.627,270.576 135.523,237.017 135.482 C 186.408 135.421,186.249 135.419,186.319 134.929 C 187.701 125.150,182.336 116.449,173.161 113.588 C 172.040 113.239,170.907 112.953,170.644 112.953 C 170.097 112.953,170.041 112.489,170.401 110.913 C 170.530 110.347,170.812 108.944,171.028 107.796 C 171.721 104.108,173.819 97.162,175.217 93.923 C 176.528 90.886,178.160 87.436,178.657 86.648 C 178.984 86.130,179.251 85.615,179.251 85.504 C 179.251 85.393,179.594 84.760,180.014 84.099 C 180.434 83.437,180.964 82.559,181.191 82.147 C 181.419 81.736,182.015 80.792,182.515 80.049 C 199.915 54.231,227.965 40.876,258.809 43.725 M172.186 114.686 C 183.076 117.466,188.993 131.315,183.040 140.088 C 182.712 140.572,182.443 141.052,182.443 141.156 C 182.443 141.260,181.678 142.175,180.742 143.191 C 169.784 155.083,150.300 147.599,150.279 131.490 C 150.264 120.192,161.124 111.861,172.186 114.686 M57.210 115.657 C 51.006 116.360,47.542 119.848,47.579 125.353 C 47.611 129.995,49.737 131.716,57.730 133.565 C 64.514 135.134,65.424 135.360,65.684 135.537 C 65.820 135.629,66.447 135.895,67.079 136.129 C 73.301 138.426,73.683 146.849,67.697 149.774 C 61.667 152.721,53.162 151.395,47.636 146.644 C 46.556 145.717,46.003 146.002,46.936 147.006 C 53.481 154.050,69.598 153.343,72.277 145.894 C 74.579 139.492,71.185 135.939,60.405 133.469 C 49.982 131.080,48.123 129.641,48.423 124.190 C 48.689 119.365,51.724 116.896,57.987 116.411 C 63.082 116.016,66.429 116.862,68.945 119.180 C 69.661 119.841,70.080 120.073,70.250 119.903 C 70.604 119.549,68.440 117.659,66.710 116.812 C 64.475 115.718,60.710 115.260,57.210 115.657 M26.502 116.329 C 26.364 116.700,25.879 117.833,25.423 118.846 C 24.968 119.859,23.852 122.400,22.944 124.494 C 22.035 126.587,20.921 129.109,20.468 130.098 C 20.015 131.087,19.643 132.026,19.641 132.185 C 19.639 132.344,19.381 132.923,19.067 133.473 C 18.752 134.022,18.382 134.796,18.244 135.192 C 17.938 136.066,14.692 143.524,13.859 145.267 C 13.529 145.956,13.260 146.591,13.260 146.678 C 13.260 146.765,12.873 147.673,12.401 148.696 C 11.326 151.022,11.128 151.753,11.576 151.739 C 11.955 151.728,12.177 151.272,15.095 144.506 C 16.260 141.805,17.302 139.429,17.412 139.227 C 17.583 138.909,18.922 138.858,27.146 138.858 L 36.682 138.858 38.209 142.296 C 40.870 148.289,41.029 148.653,41.576 150.007 C 42.073 151.239,42.769 152.033,43.079 151.723 C 43.152 151.651,42.649 150.329,41.962 148.785 C 41.275 147.242,40.570 145.592,40.395 145.120 C 40.220 144.647,39.699 143.432,39.236 142.419 C 38.773 141.406,37.969 139.583,37.451 138.367 C 36.932 137.152,36.262 135.605,35.961 134.929 C 34.074 130.698,28.799 118.527,28.218 117.066 C 27.582 115.466,26.927 115.185,26.502 116.329 M75.629 116.022 C 75.629 116.341,76.557 116.390,82.503 116.390 L 89.377 116.390 89.440 134.009 C 89.495 149.477,89.548 151.627,89.871 151.627 C 90.194 151.627,90.255 149.458,90.362 134.070 L 90.485 116.513 97.422 116.448 C 103.362 116.392,104.359 116.330,104.359 116.018 C 104.359 115.700,102.532 115.654,89.994 115.654 C 77.389 115.654,75.629 115.699,75.629 116.022 M110.743 133.702 C 110.743 149.581,110.787 151.750,111.111 151.750 C 111.430 151.750,111.479 150.795,111.479 144.629 L 111.479 137.508 118.327 137.508 L 125.174 137.508 127.824 141.621 C 133.581 150.559,134.392 151.750,134.716 151.750 C 135.289 151.750,135.114 151.377,133.023 148.139 C 131.906 146.411,130.332 143.961,129.524 142.696 C 128.715 141.430,127.695 139.858,127.256 139.203 C 126.210 137.641,126.286 137.263,127.644 137.262 C 127.870 137.262,128.746 136.935,129.591 136.535 C 137.254 132.910,137.206 120.679,129.514 116.766 C 127.642 115.814,126.019 115.657,118.048 115.655 L 110.743 115.654 110.743 133.702 M289.562 131.308 L 289.626 146.961 299.754 146.961 C 306.302 146.961,309.905 146.875,309.945 146.716 C 309.985 146.556,306.557 146.448,300.123 146.406 L 290.239 146.342 290.239 130.998 C 290.239 117.489,290.195 115.654,289.869 115.654 C 289.543 115.654,289.507 117.495,289.562 131.308 M370.693 115.911 C 364.445 116.960,359.239 124.106,359.239 131.634 C 359.239 145.535,374.808 152.734,384.160 143.158 C 385.483 141.803,385.513 141.838,385.513 144.751 C 385.513 146.307,385.610 147.330,385.758 147.330 C 385.916 147.330,386.004 144.710,386.004 139.963 L 386.004 132.597 381.952 132.597 C 376.720 132.597,376.466 133.049,381.645 133.143 L 385.390 133.211 385.457 137.041 L 385.525 140.871 383.704 142.601 C 378.518 147.527,372.191 148.290,366.785 144.641 C 359.466 139.702,357.693 129.489,362.855 122.009 C 367.746 114.922,378.724 114.485,383.671 121.179 C 384.546 122.363,385.267 122.884,385.267 122.333 C 385.267 121.969,383.132 119.198,382.336 118.528 C 379.696 116.307,374.841 115.216,370.693 115.911 M128.674 117.310 C 137.200 121.582,136.306 134.051,127.305 136.396 C 125.433 136.883,112.249 136.952,111.774 136.476 C 111.441 136.143,111.334 116.865,111.664 116.532 C 111.765 116.430,115.276 116.384,119.465 116.430 L 127.083 116.513 128.674 117.310 M28.594 120.135 C 29.243 121.654,30.024 123.450,30.328 124.125 C 30.633 124.800,31.737 127.342,32.782 129.773 C 33.826 132.204,34.999 134.869,35.388 135.696 C 36.574 138.216,37.354 137.999,27.107 137.999 L 18.117 137.999 18.275 137.324 C 18.362 136.952,18.749 135.985,19.136 135.175 C 19.523 134.365,20.744 131.602,21.849 129.036 C 22.954 126.470,24.113 123.818,24.424 123.143 C 24.736 122.468,25.418 120.896,25.939 119.650 C 27.133 116.797,27.172 116.804,28.594 120.135 M334.332 121.323 C 343.673 123.034,346.012 136.126,337.862 141.077 C 334.914 142.867,330.413 143.325,328.068 142.072 C 327.723 141.887,327.001 141.502,326.464 141.216 C 325.927 140.930,324.919 140.135,324.224 139.449 C 323.085 138.323,322.728 137.718,321.520 134.860 C 320.350 132.093,321.647 127.015,324.184 124.434 C 326.916 121.654,330.366 120.596,334.332 121.323 " stroke="none" fill="#f5f5f5" fill-rule="evenodd"></path><path id="path1" d="M243.035 42.163 C 243.341 42.221,243.783 42.219,244.018 42.158 C 244.252 42.096,244.002 42.048,243.462 42.051 C 242.922 42.054,242.730 42.104,243.035 42.163 M257.277 42.163 C 257.583 42.221,258.025 42.219,258.259 42.158 C 258.494 42.096,258.244 42.048,257.704 42.051 C 257.164 42.054,256.972 42.104,257.277 42.163 M249.912 43.395 C 250.354 43.449,251.017 43.448,251.386 43.392 C 251.755 43.336,251.393 43.291,250.583 43.293 C 249.773 43.294,249.471 43.340,249.912 43.395 M302.517 62.201 C 302.517 62.243,302.876 62.602,303.315 62.999 L 304.113 63.720 303.392 62.922 C 302.719 62.178,302.517 62.011,302.517 62.201 M306.937 64.211 C 307.670 64.954,308.326 65.562,308.393 65.562 C 308.461 65.562,307.916 64.954,307.182 64.211 C 306.449 63.468,305.793 62.861,305.726 62.861 C 305.658 62.861,306.203 63.468,306.937 64.211 M194.091 63.904 L 193.370 64.702 194.168 63.981 C 194.607 63.584,194.966 63.225,194.966 63.183 C 194.966 62.993,194.764 63.160,194.091 63.904 M307.670 67.096 C 310.746 70.233,311.111 70.584,311.111 70.408 C 311.111 70.372,309.592 68.853,307.735 67.032 L 304.359 63.720 307.670 67.096 M194.707 65.500 L 193.861 66.421 194.782 65.575 C 195.639 64.787,195.816 64.579,195.628 64.579 C 195.587 64.579,195.173 64.994,194.707 65.500 M310.743 68.017 C 311.408 68.692,312.007 69.245,312.075 69.245 C 312.142 69.245,311.653 68.692,310.988 68.017 C 310.323 67.342,309.724 66.789,309.656 66.789 C 309.589 66.789,310.078 67.342,310.743 68.017 M189.796 68.201 L 188.950 69.122 189.871 68.276 C 190.728 67.488,190.905 67.281,190.717 67.281 C 190.676 67.281,190.262 67.695,189.796 68.201 M191.145 69.061 L 190.424 69.859 191.222 69.138 C 191.661 68.741,192.020 68.382,192.020 68.340 C 192.020 68.150,191.817 68.317,191.145 69.061 M187.953 70.289 L 187.231 71.087 188.029 70.365 C 188.468 69.969,188.828 69.610,188.828 69.567 C 188.828 69.378,188.625 69.545,187.953 70.289 M177.889 87.930 C 177.673 88.347,177.540 88.733,177.593 88.786 C 177.646 88.839,177.874 88.497,178.098 88.026 C 178.603 86.967,178.428 86.886,177.889 87.930 M57.646 115.582 C 57.951 115.641,58.393 115.638,58.628 115.577 C 58.863 115.515,58.613 115.467,58.072 115.470 C 57.532 115.473,57.340 115.523,57.646 115.582 M61.449 115.577 C 61.685 115.639,62.072 115.639,62.308 115.577 C 62.545 115.516,62.351 115.465,61.878 115.465 C 61.406 115.465,61.212 115.516,61.449 115.577 M332.781 117.004 C 332.784 117.545,332.834 117.737,332.893 117.431 C 332.952 117.126,332.950 116.684,332.888 116.449 C 332.827 116.214,332.779 116.464,332.781 117.004 M79.006 116.574 C 80.930 116.616,84.079 116.616,86.004 116.574 C 87.928 116.533,86.354 116.499,82.505 116.499 C 78.656 116.499,77.081 116.533,79.006 116.574 M90.523 116.575 C 90.460 116.676,92.470 116.730,94.989 116.696 C 103.451 116.580,104.283 116.494,97.436 116.442 C 93.696 116.414,90.585 116.473,90.523 116.575 M111.592 116.698 C 111.527 116.867,111.504 121.370,111.541 126.704 L 111.608 136.403 111.667 126.523 L 111.725 116.644 118.662 116.574 L 125.599 116.505 118.654 116.448 C 113.276 116.403,111.683 116.460,111.592 116.698 M331.308 117.986 C 331.311 118.527,331.361 118.719,331.420 118.413 C 331.479 118.108,331.476 117.666,331.415 117.431 C 331.353 117.196,331.305 117.446,331.308 117.986 M131.614 118.232 C 132.073 118.705,132.503 119.091,132.570 119.091 C 132.638 119.091,132.318 118.705,131.860 118.232 C 131.402 117.759,130.972 117.373,130.904 117.373 C 130.837 117.373,131.156 117.759,131.614 118.232 M49.833 118.785 L 48.987 119.705 49.908 118.859 C 50.765 118.072,50.942 117.864,50.754 117.864 C 50.713 117.864,50.299 118.278,49.833 118.785 M69.490 118.723 C 69.949 119.196,70.379 119.583,70.446 119.583 C 70.514 119.583,70.194 119.196,69.736 118.723 C 69.278 118.250,68.848 117.864,68.780 117.864 C 68.713 117.864,69.032 118.250,69.490 118.723 M179.977 119.153 C 180.580 119.794,181.104 120.319,181.144 120.319 C 181.328 120.319,181.133 120.099,180.049 119.081 L 178.883 117.986 179.977 119.153 M382.320 118.432 C 382.320 118.474,382.680 118.833,383.118 119.230 L 383.917 119.951 383.195 119.153 C 382.523 118.409,382.320 118.242,382.320 118.432 M50.199 119.398 L 49.478 120.196 50.276 119.475 C 51.020 118.803,51.187 118.600,50.997 118.600 C 50.955 118.600,50.596 118.959,50.199 119.398 M364.263 120.381 L 363.045 121.670 364.334 120.451 C 365.043 119.781,365.623 119.201,365.623 119.162 C 365.623 118.979,365.396 119.183,364.263 120.381 M336.894 120.688 C 337.231 120.881,337.618 121.038,337.753 121.038 C 337.888 121.038,337.723 120.881,337.385 120.688 C 337.047 120.495,336.661 120.337,336.525 120.337 C 336.390 120.337,336.556 120.495,336.894 120.688 M151.504 121.793 C 151.215 122.198,151.035 122.529,151.102 122.529 C 151.170 122.529,151.461 122.198,151.750 121.793 C 152.038 121.387,152.219 121.056,152.151 121.056 C 152.084 121.056,151.792 121.387,151.504 121.793 M340.567 123.082 C 341.584 124.166,341.805 124.361,341.805 124.176 C 341.805 124.137,341.280 123.612,340.638 123.010 L 339.472 121.915 340.567 123.082 M47.448 124.002 C 47.448 124.475,47.499 124.669,47.560 124.432 C 47.622 124.196,47.622 123.809,47.560 123.573 C 47.499 123.336,47.448 123.530,47.448 124.002 M324.233 124.309 L 323.511 125.107 324.309 124.386 C 324.748 123.990,325.107 123.630,325.107 123.588 C 325.107 123.398,324.905 123.566,324.233 124.309 M135.378 126.581 C 135.379 127.526,135.424 127.883,135.477 127.373 C 135.530 126.864,135.529 126.090,135.475 125.654 C 135.421 125.219,135.377 125.635,135.378 126.581 M49.355 128.990 C 49.355 129.033,49.715 129.392,50.153 129.788 L 50.952 130.510 50.230 129.711 C 49.558 128.968,49.355 128.801,49.355 128.990 M150.333 129.650 C 150.333 130.123,150.384 130.316,150.446 130.080 C 150.507 129.843,150.507 129.457,150.446 129.220 C 150.384 128.984,150.333 129.177,150.333 129.650 M186.434 129.773 C 186.437 130.313,186.487 130.505,186.546 130.200 C 186.604 129.894,186.602 129.452,186.541 129.218 C 186.479 128.983,186.431 129.233,186.434 129.773 M321.236 130.387 C 321.236 130.859,321.286 131.053,321.348 130.816 C 321.410 130.580,321.410 130.193,321.348 129.957 C 321.286 129.721,321.236 129.914,321.236 130.387 M359.076 131.614 C 359.076 132.627,359.119 133.042,359.172 132.535 C 359.225 132.029,359.225 131.200,359.172 130.694 C 359.119 130.187,359.076 130.602,359.076 131.614 M185.220 131.492 C 185.222 132.302,185.268 132.604,185.322 132.163 C 185.377 131.721,185.376 131.058,185.320 130.689 C 185.264 130.320,185.219 130.681,185.220 131.492 M148.870 131.369 C 148.870 131.977,148.918 132.225,148.976 131.921 C 149.035 131.618,149.035 131.120,148.976 130.816 C 148.918 130.513,148.870 130.761,148.870 131.369 M342.857 131.983 C 342.859 132.658,342.907 132.905,342.963 132.532 C 343.020 132.159,343.018 131.606,342.960 131.304 C 342.902 131.002,342.855 131.308,342.857 131.983 M344.317 131.860 C 344.317 132.333,344.368 132.526,344.430 132.290 C 344.491 132.053,344.491 131.667,344.430 131.430 C 344.368 131.194,344.317 131.387,344.317 131.860 M186.439 133.333 C 186.439 133.941,186.487 134.190,186.545 133.886 C 186.604 133.582,186.604 133.085,186.545 132.781 C 186.487 132.477,186.439 132.726,186.439 133.333 M382.014 132.532 L 386.004 132.609 386.004 139.969 C 386.004 144.541,385.914 147.330,385.766 147.330 C 385.634 147.330,385.492 146.167,385.446 144.690 L 385.362 142.050 385.376 144.751 C 385.387 146.983,385.454 147.452,385.758 147.452 C 386.077 147.452,386.126 146.457,386.126 139.963 L 386.126 132.474 382.075 132.464 L 378.023 132.454 382.014 132.532 M321.182 133.477 C 321.184 133.870,321.292 134.359,321.421 134.561 C 321.581 134.812,321.608 134.616,321.505 133.947 C 321.319 132.733,321.177 132.527,321.182 133.477 M381.577 133.268 L 385.255 133.346 385.332 137.146 L 385.409 140.946 385.399 137.078 L 385.390 133.211 381.645 133.201 L 377.900 133.191 381.577 133.268 M131.476 134.131 L 130.755 134.929 131.553 134.208 C 131.992 133.812,132.351 133.452,132.351 133.410 C 132.351 133.220,132.149 133.387,131.476 134.131 M186.190 135.052 C 186.279 135.378,192.144 135.421,237.098 135.421 L 287.907 135.422 237.215 135.359 C 197.050 135.310,186.478 135.233,186.306 134.990 C 186.146 134.764,186.115 134.780,186.190 135.052 M67.301 135.389 C 67.554 135.615,68.999 136.280,68.999 136.170 C 68.999 136.028,67.638 135.298,67.375 135.298 C 67.278 135.298,67.245 135.339,67.301 135.389 M115.470 136.709 C 117.462 136.750,120.721 136.750,122.713 136.709 C 124.705 136.668,123.076 136.634,119.091 136.634 C 115.107 136.634,113.478 136.668,115.470 136.709 M111.588 144.629 C 111.588 148.613,111.622 150.242,111.663 148.250 C 111.704 146.258,111.704 142.999,111.663 141.007 C 111.622 139.015,111.588 140.645,111.588 144.629 M22.668 137.937 C 25.209 137.977,29.297 137.977,31.753 137.937 C 34.209 137.897,32.130 137.864,27.133 137.864 C 22.136 137.864,20.127 137.897,22.668 137.937 M17.483 139.030 C 17.321 139.192,17.188 139.434,17.188 139.568 C 17.188 139.702,17.327 139.622,17.496 139.390 C 17.779 139.003,18.568 138.975,27.295 139.037 C 32.515 139.074,36.734 139.021,36.672 138.920 C 36.468 138.589,17.816 138.697,17.483 139.030 M339.457 139.779 L 338.735 140.577 339.533 139.856 C 340.277 139.184,340.444 138.981,340.255 138.981 C 340.212 138.981,339.853 139.340,339.457 139.779 M71.762 142.050 C 71.765 142.591,71.815 142.783,71.874 142.477 C 71.933 142.172,71.931 141.730,71.869 141.495 C 71.808 141.260,71.760 141.510,71.762 142.050 M331.679 144.311 C 331.984 144.370,332.426 144.368,332.661 144.306 C 332.896 144.245,332.646 144.197,332.106 144.199 C 331.565 144.202,331.373 144.252,331.679 144.311 M179.604 146.163 L 178.883 146.961 179.681 146.240 C 180.120 145.843,180.479 145.484,180.479 145.442 C 180.479 145.252,180.276 145.419,179.604 146.163 M46.900 145.933 C 46.900 145.975,47.259 146.335,47.698 146.731 L 48.496 147.452 47.775 146.654 C 47.103 145.911,46.900 145.743,46.900 145.933 M46.163 146.424 C 46.163 146.467,46.522 146.826,46.961 147.222 L 47.759 147.944 47.038 147.145 C 46.366 146.402,46.163 146.235,46.163 146.424 M70.459 148.742 L 69.613 149.662 70.534 148.816 C 71.391 148.029,71.568 147.821,71.380 147.821 C 71.339 147.821,70.925 148.235,70.459 148.742 M166.912 150.454 C 167.351 150.508,168.069 150.508,168.508 150.454 C 168.947 150.399,168.588 150.355,167.710 150.355 C 166.832 150.355,166.473 150.399,166.912 150.454 M61.326 151.186 C 61.630 151.245,62.127 151.245,62.431 151.186 C 62.735 151.128,62.486 151.080,61.878 151.080 C 61.271 151.080,61.022 151.128,61.326 151.186 M57.646 151.923 C 57.951 151.982,58.393 151.980,58.628 151.918 C 58.863 151.857,58.613 151.809,58.072 151.811 C 57.532 151.814,57.340 151.864,57.646 151.923 M61.572 151.923 C 61.875 151.981,62.373 151.981,62.676 151.923 C 62.980 151.864,62.732 151.816,62.124 151.816 C 61.516 151.816,61.268 151.864,61.572 151.923 M324.296 158.014 C 324.071 158.485,323.938 158.870,324.000 158.870 C 324.168 158.870,324.914 157.367,324.801 157.255 C 324.748 157.201,324.521 157.543,324.296 158.014 M311.955 177.348 L 311.234 178.146 312.032 177.425 C 312.471 177.028,312.830 176.669,312.830 176.627 C 312.830 176.437,312.627 176.604,311.955 177.348 M187.354 178.100 C 187.354 178.142,187.713 178.502,188.152 178.898 L 188.950 179.619 188.229 178.821 C 187.557 178.077,187.354 177.910,187.354 178.100 M191.529 180.356 C 191.987 180.829,192.417 181.215,192.484 181.215 C 192.552 181.215,192.232 180.829,191.774 180.356 C 191.316 179.883,190.886 179.497,190.818 179.497 C 190.751 179.497,191.070 179.883,191.529 180.356 M310.613 181.154 L 309.024 182.812 310.681 181.223 C 312.221 179.747,312.451 179.497,312.270 179.497 C 312.233 179.497,311.487 180.242,310.613 181.154 M189.073 180.065 C 189.073 180.107,189.432 180.466,189.871 180.863 L 190.669 181.584 189.948 180.786 C 189.276 180.042,189.073 179.875,189.073 180.065 M193.984 182.766 C 193.984 182.808,194.343 183.167,194.782 183.564 L 195.580 184.285 194.859 183.487 C 194.187 182.743,193.984 182.576,193.984 182.766 M307.052 184.715 L 305.586 186.249 307.121 184.784 C 308.547 183.422,308.768 183.180,308.587 183.180 C 308.549 183.180,307.858 183.870,307.052 184.715 M193.493 184.484 C 193.493 184.527,193.852 184.886,194.291 185.282 L 195.089 186.004 194.368 185.206 C 193.696 184.462,193.493 184.295,193.493 184.484 M195.457 186.203 C 195.457 186.246,195.816 186.605,196.255 187.001 L 197.053 187.723 196.332 186.924 C 195.660 186.181,195.457 186.014,195.457 186.203 M263.475 204.543 C 262.981 204.701,262.957 204.741,263.352 204.746 C 263.622 204.750,264.064 204.659,264.334 204.543 C 264.960 204.274,264.314 204.274,263.475 204.543 M230.203 204.788 C 230.473 204.904,230.859 204.999,231.062 204.999 C 231.294 204.999,231.249 204.921,230.939 204.788 C 230.669 204.672,230.282 204.577,230.080 204.577 C 229.848 204.577,229.893 204.655,230.203 204.788 M249.908 205.698 C 250.212 205.757,250.709 205.757,251.013 205.698 C 251.317 205.640,251.068 205.592,250.460 205.592 C 249.853 205.592,249.604 205.640,249.908 205.698 M242.419 206.922 C 242.655 206.984,243.042 206.984,243.278 206.922 C 243.514 206.860,243.321 206.810,242.848 206.810 C 242.376 206.810,242.182 206.860,242.419 206.922 M257.766 206.926 C 258.069 206.984,258.567 206.984,258.870 206.926 C 259.174 206.867,258.926 206.819,258.318 206.819 C 257.710 206.819,257.462 206.867,257.766 206.926 M245.856 207.167 C 246.093 207.229,246.479 207.229,246.716 207.167 C 246.952 207.106,246.759 207.055,246.286 207.055 C 245.813 207.055,245.620 207.106,245.856 207.167 M254.331 207.172 C 254.636 207.231,255.078 207.228,255.313 207.167 C 255.548 207.105,255.298 207.057,254.758 207.060 C 254.217 207.063,254.025 207.113,254.331 207.172 " stroke="none" fill="#848484" fill-rule="evenodd"></path><path id="path2" d="M0.000 122.775 L 0.000 245.549 200.000 245.549 L 400.000 245.549 400.000 122.775 L 400.000 0.000 200.000 0.000 L 0.000 0.000 0.000 122.775 M256.931 41.880 C 262.827 42.197,273.763 44.422,277.348 46.034 C 277.753 46.216,278.748 46.582,279.558 46.848 C 282.373 47.771,289.155 50.955,291.506 52.458 C 292.092 52.832,292.904 53.318,293.309 53.536 C 295.294 54.607,299.132 57.261,301.946 59.508 C 309.844 65.818,317.757 74.868,321.836 82.259 C 322.172 82.867,322.784 83.972,323.197 84.715 C 325.251 88.409,327.187 92.655,328.179 95.641 C 328.493 96.587,328.960 97.858,329.217 98.465 C 329.473 99.073,329.832 100.233,330.015 101.044 C 330.197 101.854,330.429 102.627,330.529 102.762 C 330.629 102.897,331.002 104.500,331.357 106.323 C 331.712 108.146,332.105 110.020,332.231 110.487 C 332.357 110.954,332.653 113.192,332.890 115.459 C 333.314 119.512,333.331 119.583,333.903 119.583 C 340.281 119.583,346.304 128.522,344.263 134.958 C 343.722 136.665,342.696 138.802,342.108 139.451 C 338.891 142.996,336.180 144.383,332.467 144.383 L 331.090 144.383 330.580 146.041 C 330.299 146.952,329.872 148.416,329.632 149.294 C 329.392 150.172,329.116 151.001,329.018 151.136 C 328.921 151.271,328.664 151.982,328.447 152.717 C 328.230 153.451,327.849 154.501,327.599 155.049 C 327.350 155.598,326.949 156.544,326.709 157.152 C 325.955 159.059,323.185 164.463,321.758 166.809 C 321.004 168.048,320.177 169.427,319.919 169.874 C 319.308 170.936,316.145 175.160,315.661 175.562 C 315.454 175.733,315.285 175.979,315.285 176.109 C 315.285 176.517,311.039 181.228,308.133 184.043 C 300.667 191.276,293.825 195.839,282.977 200.821 C 267.647 207.860,243.912 209.351,227.747 204.291 C 223.989 203.115,219.207 201.454,218.607 201.118 C 218.367 200.984,216.900 200.305,215.347 199.609 C 213.794 198.914,212.232 198.139,211.876 197.887 C 211.520 197.635,210.747 197.205,210.157 196.931 C 209.568 196.658,208.588 196.113,207.980 195.720 C 207.373 195.326,206.737 194.996,206.568 194.986 C 206.400 194.975,206.262 194.858,206.262 194.726 C 206.262 194.593,205.847 194.271,205.341 194.010 C 203.689 193.157,199.764 190.180,195.728 186.718 C 185.830 178.231,176.975 165.317,172.641 153.048 C 171.870 150.864,171.624 150.410,171.243 150.459 C 169.821 150.645,165.107 150.527,163.871 150.275 C 162.299 149.955,161.520 149.659,159.138 148.478 C 156.481 147.161,156.356 147.069,154.151 144.827 C 145.943 136.481,147.187 122.881,156.785 116.014 C 159.659 113.959,162.463 113.013,167.001 112.570 L 168.379 112.435 168.652 110.914 C 169.229 107.705,170.168 103.525,170.639 102.070 C 170.909 101.235,171.346 99.834,171.610 98.956 C 173.147 93.844,176.646 86.208,179.638 81.434 C 180.303 80.373,181.041 79.181,181.277 78.785 C 181.746 78.001,184.546 74.163,185.371 73.174 C 191.588 65.720,195.162 62.296,202.022 57.225 C 204.010 55.755,204.551 55.400,208.226 53.161 C 210.643 51.688,216.674 48.678,219.153 47.708 C 223.145 46.145,225.085 45.460,226.642 45.063 C 227.520 44.839,228.680 44.509,229.220 44.329 C 230.343 43.955,236.882 42.650,239.715 42.235 C 243.897 41.621,249.845 41.499,256.931 41.880 M247.882 43.628 C 225.015 44.560,203.845 54.564,189.564 71.189 C 188.956 71.897,188.337 72.609,188.187 72.772 C 187.697 73.306,183.917 78.311,183.917 78.425 C 183.917 78.487,183.322 79.402,182.594 80.459 C 180.469 83.550,176.527 91.132,175.197 94.686 C 172.936 100.731,170.442 110.016,170.413 112.498 C 170.412 112.586,171.268 112.848,172.314 113.081 C 173.361 113.314,174.770 113.779,175.445 114.114 C 176.120 114.450,177.032 114.903,177.471 115.122 C 183.089 117.923,187.288 126.010,186.766 133.026 L 186.615 135.051 237.261 135.113 C 287.722 135.175,287.907 135.177,287.907 135.666 C 287.907 136.155,287.722 136.157,237.061 136.219 L 186.216 136.281 185.778 137.692 C 184.328 142.364,179.125 148.025,175.344 149.043 C 173.481 149.544,173.363 150.273,174.688 153.100 C 174.877 153.505,175.339 154.610,175.714 155.556 C 176.581 157.745,180.448 165.386,181.393 166.776 C 181.788 167.357,182.545 168.495,183.075 169.303 C 188.986 178.319,196.524 185.798,206.139 192.187 C 207.759 193.265,209.583 194.407,210.190 194.726 C 210.798 195.045,211.958 195.668,212.769 196.110 C 213.579 196.552,214.739 197.141,215.347 197.419 C 215.955 197.696,217.004 198.197,217.680 198.532 C 234.124 206.688,259.131 207.542,277.992 200.593 C 279.427 200.064,280.668 199.632,280.750 199.632 C 280.832 199.632,281.843 199.190,282.996 198.649 C 284.149 198.109,285.136 197.667,285.190 197.667 C 285.618 197.667,292.898 193.498,295.368 191.838 C 300.801 188.187,307.904 181.982,311.345 177.881 C 313.224 175.642,317.250 170.480,317.250 170.310 C 317.250 170.247,317.910 169.217,318.718 168.022 C 320.237 165.775,320.663 165.021,322.643 161.080 C 324.344 157.694,325.227 155.750,325.822 154.082 C 326.111 153.272,326.456 152.388,326.587 152.118 C 326.719 151.848,327.169 150.522,327.587 149.171 C 329.184 144.006,329.200 143.892,328.305 143.892 C 326.889 143.892,323.388 141.314,321.599 138.954 C 319.954 136.784,318.803 129.938,319.865 128.644 C 320.021 128.455,320.269 127.847,320.417 127.293 C 320.565 126.739,320.961 125.911,321.297 125.451 C 321.633 124.992,322.105 124.325,322.346 123.969 C 323.781 121.850,327.895 119.583,330.302 119.583 C 331.038 119.583,331.246 119.488,331.246 119.153 C 331.246 117.977,330.236 110.173,329.903 108.778 C 329.693 107.901,329.259 106.077,328.939 104.727 C 328.179 101.528,326.972 97.629,326.207 95.899 C 325.872 95.142,325.599 94.396,325.599 94.241 C 325.599 93.431,321.207 84.894,318.901 81.221 C 315.139 75.228,308.377 67.401,303.357 63.229 C 295.568 56.756,287.274 51.716,280.295 49.215 C 279.484 48.925,278.379 48.512,277.839 48.297 C 275.886 47.521,271.410 46.208,269.368 45.811 C 268.220 45.589,267.029 45.302,266.723 45.174 C 265.458 44.647,250.755 43.205,249.758 43.510 C 249.672 43.537,248.828 43.590,247.882 43.628 M165.869 114.419 C 157.233 115.352,150.531 122.879,150.523 131.654 C 150.522 133.604,151.064 136.604,151.605 137.630 C 151.818 138.036,151.993 138.489,151.994 138.638 C 151.995 138.932,154.267 142.432,155.063 143.365 C 159.556 148.635,170.009 150.387,175.778 146.837 C 176.435 146.433,177.098 146.102,177.250 146.102 C 177.403 146.102,177.666 145.881,177.835 145.611 C 178.003 145.341,178.257 145.120,178.398 145.120 C 178.748 145.120,180.938 142.795,181.886 141.417 C 186.070 135.335,185.939 127.047,181.569 121.301 C 177.844 116.405,171.842 113.774,165.869 114.419 M65.516 116.044 C 68.551 117.080,71.279 119.373,70.456 120.196 C 70.117 120.534,69.981 120.484,69.110 119.700 C 65.874 116.787,61.075 115.824,55.545 116.977 C 49.983 118.137,47.245 122.767,49.135 127.818 C 49.827 129.670,53.655 132.038,56.050 132.095 C 56.288 132.101,56.675 132.213,56.909 132.344 C 57.144 132.475,58.551 132.815,60.037 133.100 C 69.434 134.900,72.928 137.525,72.928 142.786 C 72.928 144.697,72.342 147.091,71.798 147.403 C 71.609 147.511,71.455 147.748,71.455 147.930 C 71.455 148.698,69.475 150.006,66.298 151.336 C 63.360 152.567,56.286 152.449,53.370 151.120 C 52.944 150.926,52.470 150.767,52.317 150.767 C 51.727 150.767,48.759 148.989,47.277 147.747 C 46.090 146.753,45.935 146.351,46.543 145.847 C 46.865 145.580,47.082 145.684,47.955 146.524 C 51.915 150.333,58.690 151.959,64.625 150.526 C 69.394 149.374,71.377 147.429,71.636 143.649 C 72.009 138.205,68.747 135.944,57.461 133.826 C 55.910 133.534,54.528 133.204,54.392 133.092 C 54.255 132.980,53.508 132.705,52.732 132.480 C 47.870 131.072,45.804 125.874,48.151 120.960 C 49.246 118.667,52.313 116.158,54.033 116.147 C 54.242 116.146,54.519 116.042,54.647 115.917 C 55.636 114.949,62.546 115.030,65.516 116.044 M29.250 118.846 C 30.059 120.669,30.869 122.548,31.050 123.020 C 31.596 124.446,34.865 131.921,35.346 132.842 C 35.592 133.315,35.875 133.978,35.973 134.316 C 36.072 134.653,36.466 135.592,36.848 136.403 C 37.696 138.197,40.926 145.604,41.268 146.535 C 41.404 146.905,41.725 147.649,41.982 148.189 C 42.544 149.371,43.462 151.657,43.462 151.873 C 43.462 151.958,43.168 151.993,42.809 151.950 C 42.237 151.882,42.019 151.563,41.075 149.417 C 40.481 148.066,39.788 146.519,39.536 145.979 C 39.283 145.439,38.840 144.393,38.551 143.655 C 38.262 142.918,37.880 142.034,37.701 141.691 C 37.523 141.348,37.182 140.599,36.944 140.025 L 36.512 138.981 27.157 138.985 L 17.802 138.990 16.724 141.502 C 16.131 142.884,15.393 144.567,15.084 145.242 C 14.775 145.918,14.068 147.520,13.513 148.803 C 12.168 151.909,12.199 151.861,11.455 151.950 C 10.653 152.046,10.650 151.916,11.418 150.323 C 11.756 149.624,12.033 148.912,12.035 148.743 C 12.037 148.573,12.304 147.969,12.629 147.400 C 12.955 146.831,13.297 146.113,13.390 145.804 C 13.483 145.495,13.867 144.579,14.244 143.769 C 14.620 142.959,15.173 141.688,15.473 140.945 C 16.021 139.588,16.182 139.225,17.788 135.730 C 18.269 134.685,18.662 133.760,18.662 133.673 C 18.662 133.587,18.977 132.840,19.363 132.013 C 20.523 129.523,20.872 128.668,20.872 128.312 C 20.872 128.125,20.966 127.935,21.080 127.890 C 21.195 127.845,21.594 127.035,21.967 126.090 C 22.341 125.144,22.729 124.260,22.831 124.125 C 22.932 123.990,23.321 123.106,23.693 122.161 C 24.066 121.215,24.523 120.224,24.709 119.958 C 24.894 119.691,25.046 119.338,25.046 119.172 C 25.046 119.007,25.405 118.091,25.844 117.137 C 27.058 114.499,27.397 114.669,29.250 118.846 M104.359 116.145 L 104.359 116.882 97.485 116.882 L 90.611 116.882 90.548 134.374 C 90.487 151.272,90.469 151.869,90.023 151.955 C 89.175 152.118,89.142 151.458,89.138 134.131 L 89.134 116.882 82.374 116.882 C 76.591 116.882,75.593 116.828,75.472 116.513 C 75.038 115.382,74.695 115.408,89.986 115.408 L 104.359 115.408 104.359 116.145 M127.703 115.804 C 134.325 117.767,137.545 125.359,134.495 131.818 C 133.156 134.653,130.163 137.106,127.624 137.448 C 127.118 137.516,126.703 137.607,126.703 137.650 C 126.703 137.778,128.343 140.449,129.705 142.541 C 130.409 143.622,132.010 146.079,133.264 148.002 C 135.783 151.867,135.836 151.998,134.868 151.989 C 134.272 151.984,133.950 151.603,132.118 148.736 C 129.135 144.065,126.328 139.739,125.591 138.674 L 124.953 137.753 118.465 137.753 L 111.978 137.753 111.913 144.813 L 111.848 151.872 111.234 151.872 L 110.620 151.872 110.556 133.947 C 110.522 124.088,110.546 115.884,110.610 115.715 C 110.805 115.205,125.949 115.284,127.703 115.804 M290.425 130.816 L 290.489 146.102 300.309 146.102 L 310.129 146.102 310.129 146.716 L 310.129 147.330 299.693 147.330 L 289.257 147.330 289.257 131.352 L 289.257 115.374 289.810 115.453 L 290.362 115.531 290.425 130.816 M378.566 116.238 C 379.675 116.600,380.906 117.170,381.302 117.503 C 381.699 117.836,382.127 118.109,382.253 118.109 C 382.698 118.109,385.509 121.870,385.512 122.468 C 385.514 123.189,384.370 122.765,383.855 121.854 C 383.314 120.897,381.737 119.242,380.904 118.757 C 378.235 117.205,376.695 116.803,373.358 116.787 C 359.733 116.720,355.001 138.029,367.177 144.622 C 367.740 144.927,368.591 145.383,369.067 145.635 C 373.102 147.774,379.261 146.467,383.423 142.588 L 385.267 140.868 385.267 137.224 L 385.267 133.579 381.576 133.579 C 377.708 133.579,377.129 133.404,377.903 132.471 C 378.216 132.094,385.207 131.910,386.106 132.255 C 386.449 132.386,386.495 133.299,386.495 139.989 L 386.495 147.575 385.881 147.575 L 385.267 147.575 385.267 144.975 L 385.267 142.375 383.978 143.644 C 379.490 148.062,372.232 149.134,367.309 146.105 C 366.648 145.698,366.046 145.365,365.971 145.365 C 365.576 145.365,363.723 143.555,362.572 142.043 C 357.022 134.757,357.828 125.003,364.483 118.920 C 365.839 117.682,368.504 116.145,369.296 116.145 C 369.518 116.145,369.804 116.043,369.932 115.918 C 370.699 115.174,375.899 115.366,378.566 116.238 M111.971 126.568 L 111.971 136.280 119.803 136.280 L 127.635 136.280 129.370 135.387 C 130.458 134.828,131.315 134.187,131.667 133.670 C 131.976 133.217,132.310 132.845,132.409 132.844 C 132.617 132.842,133.176 131.596,133.842 129.650 C 135.335 125.282,133.066 119.707,128.977 117.699 L 127.563 117.004 119.767 116.930 L 111.971 116.856 111.971 126.568 M26.660 118.649 C 26.464 119.095,25.851 120.510,25.297 121.793 C 24.743 123.076,24.080 124.567,23.825 125.107 C 23.569 125.648,23.116 126.697,22.818 127.440 C 22.254 128.844,21.751 129.980,20.318 133.088 C 19.850 134.101,19.385 135.206,19.283 135.543 C 19.180 135.881,18.879 136.516,18.614 136.955 L 18.131 137.753 26.990 137.753 C 31.863 137.753,35.850 137.711,35.850 137.660 C 35.850 137.512,35.126 135.796,34.353 134.114 C 33.961 133.261,33.640 132.495,33.640 132.412 C 33.640 132.329,33.430 131.811,33.173 131.262 C 32.917 130.713,31.808 128.165,30.709 125.599 C 27.142 117.270,27.211 117.389,26.660 118.649 M328.661 121.885 C 317.677 125.866,319.777 141.356,331.467 142.578 C 335.835 143.034,340.883 139.473,342.212 134.997 C 344.636 126.835,336.561 119.023,328.661 121.885 " stroke="none" fill="#040404" fill-rule="evenodd"></path><path id="path3" d="M249.789 41.674 C 250.162 41.730,250.714 41.729,251.016 41.671 C 251.318 41.612,251.013 41.566,250.338 41.568 C 249.662 41.570,249.415 41.618,249.789 41.674 M246.470 43.642 C 247.044 43.694,247.983 43.694,248.557 43.642 C 249.131 43.590,248.662 43.548,247.514 43.548 C 246.366 43.548,245.896 43.590,246.470 43.642 M252.609 43.642 C 253.183 43.694,254.122 43.694,254.696 43.642 C 255.270 43.590,254.800 43.548,253.653 43.548 C 252.505 43.548,252.035 43.590,252.609 43.642 M242.787 43.881 C 243.091 43.940,243.588 43.940,243.892 43.881 C 244.196 43.823,243.947 43.775,243.339 43.775 C 242.732 43.775,242.483 43.823,242.787 43.881 M256.909 43.884 C 257.283 43.940,257.835 43.939,258.137 43.881 C 258.439 43.822,258.134 43.776,257.459 43.778 C 256.783 43.780,256.536 43.828,256.909 43.884 M284.592 49.040 C 284.794 49.115,285.181 49.278,285.451 49.402 C 285.934 49.624,285.935 49.622,285.466 49.246 C 285.203 49.036,284.817 48.873,284.606 48.884 C 284.276 48.900,284.274 48.922,284.592 49.040 M303.990 61.219 C 303.990 61.261,304.349 61.620,304.788 62.017 L 305.586 62.738 304.865 61.940 C 304.193 61.196,303.990 61.029,303.990 61.219 M303.008 62.983 C 303.466 63.456,303.896 63.843,303.964 63.843 C 304.031 63.843,303.712 63.456,303.254 62.983 C 302.795 62.511,302.365 62.124,302.298 62.124 C 302.230 62.124,302.550 62.511,303.008 62.983 M306.937 63.966 C 307.670 64.708,308.326 65.316,308.393 65.316 C 308.461 65.316,307.916 64.708,307.182 63.966 C 306.449 63.223,305.793 62.615,305.726 62.615 C 305.658 62.615,306.203 63.223,306.937 63.966 M191.770 65.991 L 188.950 68.877 191.835 66.057 C 194.515 63.438,194.832 63.106,194.655 63.106 C 194.619 63.106,193.321 64.405,191.770 65.991 M310.988 68.017 C 311.653 68.692,312.253 69.245,312.320 69.245 C 312.388 69.245,311.899 68.692,311.234 68.017 C 310.569 67.342,309.969 66.789,309.902 66.789 C 309.834 66.789,310.323 67.342,310.988 68.017 M186.126 75.138 C 185.699 75.678,185.404 76.120,185.471 76.120 C 185.539 76.120,185.944 75.678,186.372 75.138 C 186.800 74.598,187.095 74.156,187.027 74.156 C 186.960 74.156,186.554 74.598,186.126 75.138 M178.194 87.787 C 177.969 88.258,177.836 88.643,177.898 88.643 C 178.066 88.643,178.812 87.140,178.699 87.028 C 178.646 86.974,178.419 87.316,178.194 87.787 M171.912 97.756 C 171.761 98.190,171.680 98.588,171.732 98.640 C 171.785 98.693,171.952 98.381,172.103 97.947 C 172.254 97.513,172.335 97.115,172.282 97.062 C 172.230 97.010,172.063 97.322,171.912 97.756 M162.308 115.040 C 161.835 115.222,161.614 115.371,161.817 115.371 C 162.020 115.371,162.572 115.222,163.045 115.040 C 163.517 114.858,163.738 114.709,163.536 114.709 C 163.333 114.709,162.781 114.858,162.308 115.040 M58.011 115.332 C 58.247 115.394,58.634 115.394,58.870 115.332 C 59.107 115.270,58.913 115.220,58.441 115.220 C 57.968 115.220,57.775 115.270,58.011 115.332 M125.537 115.577 C 125.773 115.639,126.160 115.639,126.397 115.577 C 126.633 115.516,126.440 115.465,125.967 115.465 C 125.494 115.465,125.301 115.516,125.537 115.577 M290.239 130.829 L 290.362 146.225 290.425 131.015 C 290.460 122.649,290.405 115.721,290.303 115.619 C 290.200 115.516,290.172 122.361,290.239 130.829 M371.949 115.582 C 372.254 115.641,372.696 115.638,372.931 115.577 C 373.166 115.515,372.916 115.467,372.376 115.470 C 371.835 115.473,371.643 115.523,371.949 115.582 M374.282 115.584 C 374.655 115.641,375.208 115.639,375.510 115.581 C 375.812 115.523,375.506 115.477,374.831 115.478 C 374.156 115.480,373.909 115.528,374.282 115.584 M57.643 116.568 C 58.082 116.623,58.800 116.623,59.239 116.568 C 59.678 116.514,59.319 116.469,58.441 116.469 C 57.563 116.469,57.204 116.514,57.643 116.568 M61.329 116.564 C 61.634 116.623,62.076 116.621,62.311 116.559 C 62.546 116.498,62.296 116.450,61.756 116.452 C 61.215 116.455,61.023 116.505,61.329 116.564 M75.544 116.697 C 75.607 116.799,78.690 116.882,82.395 116.882 L 89.131 116.882 89.196 134.254 L 89.261 151.627 89.320 134.139 L 89.380 116.651 82.405 116.582 C 78.569 116.544,75.481 116.596,75.544 116.697 M67.055 116.715 C 67.112 116.759,67.545 117.045,68.017 117.350 L 68.877 117.904 68.140 117.271 C 67.735 116.923,67.302 116.638,67.178 116.637 C 67.054 116.637,66.999 116.672,67.055 116.715 M93.984 116.820 C 95.909 116.861,99.058 116.861,100.982 116.820 C 102.907 116.778,101.332 116.744,97.483 116.744 C 93.634 116.744,92.060 116.778,93.984 116.820 M111.784 126.519 L 111.848 136.403 119.091 136.408 L 126.335 136.414 119.153 136.343 L 111.971 136.273 111.971 126.581 L 111.971 116.889 119.030 116.820 L 126.090 116.751 118.905 116.693 L 111.719 116.636 111.784 126.519 M374.770 116.805 C 375.006 116.867,375.393 116.867,375.629 116.805 C 375.866 116.743,375.672 116.693,375.200 116.693 C 374.727 116.693,374.533 116.743,374.770 116.805 M333.022 117.864 C 333.022 118.336,333.073 118.530,333.134 118.293 C 333.196 118.057,333.196 117.670,333.134 117.434 C 333.073 117.198,333.022 117.391,333.022 117.864 M26.923 117.736 C 26.838 117.958,26.873 118.071,27.002 117.992 C 27.129 117.913,27.399 118.156,27.603 118.532 C 27.806 118.907,27.977 119.104,27.981 118.969 C 28.000 118.395,27.081 117.325,26.923 117.736 M49.588 118.785 L 48.742 119.705 49.662 118.859 C 50.519 118.072,50.696 117.864,50.509 117.864 C 50.468 117.864,50.053 118.278,49.588 118.785 M69.736 118.723 C 70.194 119.196,70.624 119.583,70.692 119.583 C 70.759 119.583,70.440 119.196,69.982 118.723 C 69.523 118.250,69.093 117.864,69.026 117.864 C 68.958 117.864,69.278 118.250,69.736 118.723 M131.614 117.941 C 131.614 117.983,131.974 118.342,132.413 118.739 L 133.211 119.460 132.489 118.662 C 131.817 117.918,131.614 117.751,131.614 117.941 M67.281 118.177 C 67.281 118.224,67.640 118.525,68.079 118.847 C 68.572 119.208,68.744 119.267,68.528 119.002 C 68.201 118.600,67.281 117.991,67.281 118.177 M179.865 119.337 C 180.530 120.012,181.129 120.565,181.197 120.565 C 181.265 120.565,180.776 120.012,180.110 119.337 C 179.445 118.662,178.846 118.109,178.778 118.109 C 178.711 118.109,179.200 118.662,179.865 119.337 M48.759 122.178 C 48.669 122.538,48.642 122.880,48.700 122.938 C 48.758 122.996,48.879 122.749,48.970 122.389 C 49.060 122.029,49.086 121.687,49.029 121.629 C 48.971 121.571,48.849 121.819,48.759 122.178 M48.449 124.862 C 48.451 125.672,48.497 125.974,48.551 125.533 C 48.606 125.091,48.605 124.428,48.549 124.059 C 48.493 123.690,48.448 124.052,48.449 124.862 M324.233 124.555 L 323.511 125.353 324.309 124.632 C 324.748 124.235,325.107 123.876,325.107 123.834 C 325.107 123.644,324.905 123.811,324.233 124.555 M31.693 124.862 C 31.693 124.997,31.851 125.384,32.044 125.721 C 32.237 126.059,32.395 126.225,32.395 126.090 C 32.395 125.955,32.237 125.568,32.044 125.230 C 31.851 124.893,31.693 124.727,31.693 124.862 M135.600 126.458 C 135.600 126.931,135.651 127.124,135.713 126.888 C 135.774 126.651,135.774 126.265,135.713 126.028 C 135.651 125.792,135.600 125.985,135.600 126.458 M359.637 126.099 C 359.553 126.319,359.494 126.682,359.505 126.908 C 359.517 127.133,359.624 126.991,359.743 126.593 C 359.974 125.818,359.892 125.435,359.637 126.099 M148.860 129.159 C 148.860 129.632,148.910 129.825,148.972 129.589 C 149.034 129.352,149.034 128.966,148.972 128.729 C 148.910 128.493,148.860 128.686,148.860 129.159 M184.977 131.369 C 184.977 132.247,185.022 132.606,185.076 132.167 C 185.131 131.728,185.131 131.010,185.076 130.571 C 185.022 130.132,184.977 130.491,184.977 131.369 M319.522 130.755 C 319.524 131.295,319.575 131.487,319.633 131.182 C 319.692 130.876,319.690 130.434,319.629 130.200 C 319.567 129.965,319.519 130.215,319.522 130.755 M148.619 131.492 C 148.622 132.032,148.672 132.224,148.731 131.919 C 148.790 131.613,148.788 131.171,148.726 130.936 C 148.665 130.702,148.617 130.952,148.619 131.492 M186.675 132.842 C 186.675 133.315,186.725 133.508,186.787 133.272 C 186.849 133.036,186.849 132.649,186.787 132.413 C 186.725 132.176,186.675 132.370,186.675 132.842 M380.049 132.288 C 381.163 132.334,382.986 132.334,384.101 132.288 C 385.215 132.243,384.303 132.206,382.075 132.206 C 379.847 132.206,378.935 132.243,380.049 132.288 M386.359 139.963 C 386.359 144.217,386.392 145.958,386.433 143.831 C 386.474 141.703,386.474 138.223,386.433 136.096 C 386.392 133.969,386.359 135.709,386.359 139.963 M377.734 132.965 C 377.781 133.432,377.968 133.457,381.526 133.466 L 385.268 133.476 381.601 133.398 C 378.382 133.330,377.919 133.269,377.809 132.897 C 377.714 132.578,377.696 132.595,377.734 132.965 M62.738 133.824 C 63.008 133.940,63.395 134.035,63.597 134.035 C 63.829 134.035,63.784 133.957,63.475 133.824 C 63.204 133.708,62.818 133.613,62.615 133.613 C 62.383 133.613,62.428 133.691,62.738 133.824 M186.580 135.112 C 186.680 135.213,209.542 135.324,237.384 135.358 C 265.225 135.392,287.923 135.338,287.822 135.238 C 287.721 135.137,264.859 135.026,237.018 134.992 C 209.176 134.958,186.479 135.012,186.580 135.112 M211.479 136.219 C 225.491 136.254,248.419 136.254,262.431 136.219 C 276.443 136.184,264.979 136.155,236.955 136.155 C 208.932 136.155,197.468 136.184,211.479 136.219 M111.671 144.728 C 111.633 148.699,111.685 151.897,111.786 151.835 C 111.888 151.772,111.971 148.578,111.971 144.737 L 111.971 137.753 118.428 137.753 C 123.248 137.753,124.974 137.831,125.231 138.060 C 125.523 138.321,125.526 138.303,125.250 137.937 C 124.954 137.547,124.323 137.508,118.332 137.508 L 111.739 137.508 111.671 144.728 M339.336 139.656 L 338.490 140.577 339.411 139.731 C 340.268 138.943,340.444 138.735,340.257 138.735 C 340.216 138.735,339.801 139.150,339.336 139.656 M182.059 143.953 L 181.338 144.751 182.136 144.030 C 182.575 143.634,182.934 143.274,182.934 143.232 C 182.934 143.042,182.732 143.209,182.059 143.953 M154.328 145.120 C 154.993 145.795,155.592 146.347,155.660 146.347 C 155.727 146.347,155.238 145.795,154.573 145.120 C 153.908 144.444,153.309 143.892,153.241 143.892 C 153.174 143.892,153.663 144.444,154.328 145.120 M46.508 145.894 C 46.395 146.077,46.441 146.111,46.638 145.989 C 46.826 145.873,47.287 146.117,47.842 146.627 L 48.742 147.452 47.895 146.532 C 46.989 145.545,46.783 145.450,46.508 145.894 M46.163 146.670 C 46.163 146.712,46.522 147.071,46.961 147.468 L 47.759 148.189 47.038 147.391 C 46.366 146.647,46.163 146.480,46.163 146.670 M327.949 147.716 C 327.858 148.075,327.832 148.417,327.890 148.475 C 327.948 148.533,328.069 148.286,328.159 147.926 C 328.250 147.566,328.276 147.224,328.218 147.166 C 328.160 147.109,328.039 147.356,327.949 147.716 M70.580 148.864 L 69.859 149.662 70.657 148.941 C 71.401 148.269,71.568 148.066,71.378 148.066 C 71.336 148.066,70.977 148.425,70.580 148.864 M58.879 152.176 C 59.592 152.226,60.697 152.226,61.334 152.175 C 61.971 152.125,61.387 152.084,60.037 152.085 C 58.686 152.085,58.165 152.127,58.879 152.176 M325.905 158.686 C 325.641 159.408,325.648 159.439,325.974 159.008 C 326.287 158.595,326.471 157.888,326.266 157.888 C 326.228 157.888,326.066 158.247,325.905 158.686 M312.937 178.821 L 312.216 179.619 313.014 178.898 C 313.758 178.226,313.925 178.023,313.735 178.023 C 313.693 178.023,313.334 178.382,312.937 178.821 M187.354 178.346 C 187.354 178.388,187.713 178.747,188.152 179.144 L 188.950 179.865 188.229 179.067 C 187.557 178.323,187.354 178.156,187.354 178.346 M310.613 181.400 L 309.024 183.057 310.681 181.468 C 312.221 179.992,312.451 179.742,312.270 179.742 C 312.233 179.742,311.487 180.488,310.613 181.400 M189.073 180.310 C 189.073 180.352,189.432 180.711,189.871 181.108 L 190.669 181.829 189.948 181.031 C 189.276 180.287,189.073 180.120,189.073 180.310 M307.052 184.960 L 305.586 186.495 307.121 185.029 C 308.547 183.668,308.768 183.425,308.587 183.425 C 308.549 183.425,307.858 184.116,307.052 184.960 M193.247 184.484 C 193.247 184.527,193.607 184.886,194.045 185.282 L 194.843 186.004 194.122 185.206 C 193.450 184.462,193.247 184.295,193.247 184.484 M200.123 187.927 C 200.123 187.994,200.565 188.400,201.105 188.828 C 201.645 189.255,202.087 189.550,202.087 189.483 C 202.087 189.415,201.645 189.010,201.105 188.582 C 200.565 188.154,200.123 187.859,200.123 187.927 M212.912 196.268 C 212.968 196.309,213.346 196.537,213.751 196.774 L 214.487 197.205 213.908 196.700 C 213.589 196.422,213.211 196.194,213.069 196.194 C 212.926 196.194,212.856 196.227,212.912 196.268 M212.155 198.023 C 212.155 198.091,212.486 198.317,212.891 198.527 C 213.297 198.736,213.628 198.852,213.628 198.785 C 213.628 198.717,213.297 198.491,212.891 198.281 C 212.486 198.072,212.155 197.955,212.155 198.023 M218.893 201.214 C 219.155 201.424,219.542 201.587,219.752 201.577 C 220.083 201.560,220.085 201.539,219.767 201.421 C 219.564 201.346,219.177 201.182,218.907 201.058 C 218.424 200.836,218.424 200.838,218.893 201.214 M243.033 205.207 C 243.336 205.266,243.834 205.266,244.138 205.207 C 244.441 205.149,244.193 205.101,243.585 205.101 C 242.977 205.101,242.729 205.149,243.033 205.207 M257.032 205.207 C 257.337 205.266,257.779 205.264,258.014 205.202 C 258.249 205.141,257.999 205.093,257.459 205.096 C 256.918 205.098,256.726 205.149,257.032 205.207 M246.470 205.459 C 247.044 205.511,247.983 205.511,248.557 205.459 C 249.131 205.407,248.662 205.365,247.514 205.365 C 246.366 205.365,245.896 205.407,246.470 205.459 M252.363 205.459 C 252.937 205.511,253.877 205.511,254.451 205.459 C 255.025 205.407,254.555 205.365,253.407 205.365 C 252.259 205.365,251.789 205.407,252.363 205.459 " stroke="none" fill="#444444" fill-rule="evenodd"></path><path id="path4" d="M289.373 131.246 C 289.373 139.890,289.404 143.390,289.441 139.025 C 289.479 134.659,289.479 127.588,289.441 123.309 C 289.404 119.031,289.373 122.603,289.373 131.246 M150.350 131.614 C 150.350 132.357,150.396 132.661,150.452 132.290 C 150.508 131.918,150.508 131.311,150.452 130.939 C 150.396 130.568,150.350 130.872,150.350 131.614 M383.907 142.234 L 382.689 143.524 383.978 142.305 C 384.687 141.635,385.267 141.055,385.267 141.016 C 385.267 140.833,385.040 141.037,383.907 142.234 M59.362 151.186 C 59.665 151.245,60.163 151.245,60.467 151.186 C 60.770 151.128,60.522 151.080,59.914 151.080 C 59.306 151.080,59.058 151.128,59.362 151.186 M307.792 181.768 L 305.095 184.530 307.858 181.834 C 309.377 180.350,310.620 179.107,310.620 179.071 C 310.620 178.894,310.297 179.202,307.792 181.768 " stroke="none" fill="#7c7c7c" fill-rule="evenodd"></path><path id="path5" d="M192.868 67.342 L 191.897 68.386 192.940 67.415 C 193.514 66.881,193.984 66.411,193.984 66.371 C 193.984 66.186,193.770 66.371,192.868 67.342 M59.607 115.336 C 59.911 115.394,60.408 115.394,60.712 115.336 C 61.016 115.277,60.767 115.230,60.160 115.230 C 59.552 115.230,59.303 115.277,59.607 115.336 M82.952 115.592 C 86.912 115.630,93.321 115.630,97.194 115.592 C 101.067 115.554,97.827 115.523,89.994 115.523 C 82.161 115.523,78.992 115.554,82.952 115.592 M110.610 115.715 C 110.546 115.884,110.522 124.033,110.558 133.824 L 110.623 151.627 110.683 133.644 L 110.743 115.661 118.048 115.592 L 125.353 115.523 118.040 115.466 C 112.373 115.421,110.701 115.477,110.610 115.715 M372.683 116.564 C 372.986 116.622,373.484 116.622,373.788 116.564 C 374.091 116.505,373.843 116.457,373.235 116.457 C 372.627 116.457,372.379 116.505,372.683 116.564 M90.479 134.193 C 90.478 143.781,90.509 147.740,90.546 142.989 C 90.583 138.239,90.584 130.393,90.546 125.555 C 90.509 120.717,90.479 124.604,90.479 134.193 M130.141 118.186 C 130.141 118.228,130.500 118.587,130.939 118.984 L 131.737 119.705 131.016 118.907 C 130.344 118.163,130.141 117.996,130.141 118.186 M186.675 131.369 C 186.675 131.842,186.725 132.035,186.787 131.799 C 186.849 131.562,186.849 131.176,186.787 130.939 C 186.725 130.703,186.675 130.896,186.675 131.369 M321.236 132.106 C 321.236 132.578,321.286 132.772,321.348 132.535 C 321.410 132.299,321.410 131.912,321.348 131.676 C 321.286 131.440,321.236 131.633,321.236 132.106 M179.856 143.953 L 178.637 145.242 179.926 144.024 C 181.124 142.892,181.328 142.664,181.145 142.664 C 181.106 142.664,180.526 143.244,179.856 143.953 M364.641 142.741 C 364.641 142.783,365.000 143.142,365.439 143.539 L 366.237 144.260 365.516 143.462 C 364.843 142.718,364.641 142.551,364.641 142.741 M295.195 146.286 C 297.854 146.325,302.274 146.325,305.017 146.286 C 307.761 146.246,305.586 146.214,300.184 146.214 C 294.782 146.214,292.537 146.246,295.195 146.286 M374.279 146.762 C 374.515 146.824,374.902 146.824,375.138 146.762 C 375.374 146.701,375.181 146.650,374.708 146.650 C 374.236 146.650,374.042 146.701,374.279 146.762 M289.469 147.148 C 289.571 147.251,294.234 147.306,299.831 147.271 L 310.006 147.207 299.644 147.084 C 293.945 147.017,289.366 147.045,289.469 147.148 M166.053 148.972 C 166.289 149.034,166.676 149.034,166.912 148.972 C 167.149 148.910,166.955 148.860,166.483 148.860 C 166.010 148.860,165.816 148.910,166.053 148.972 M192.511 181.292 C 192.511 181.335,192.870 181.694,193.309 182.090 L 194.107 182.812 193.386 182.014 C 192.713 181.270,192.511 181.103,192.511 181.292 M191.774 183.057 C 192.508 183.800,193.163 184.408,193.231 184.408 C 193.298 184.408,192.753 183.800,192.020 183.057 C 191.286 182.314,190.631 181.707,190.563 181.707 C 190.496 181.707,191.041 182.314,191.774 183.057 " stroke="none" fill="#6c6c6c" fill-rule="evenodd"></path></g></svg>