<svg id="splitsvg" version="1.1" xmlns="http://www.w3.org/2000/svg" xmlns:xlink="http://www.w3.org/1999/xlink" width="1380" height="550"><g id="svgg"><path id="path0" d="M244.936 42.005 C 243.990 42.115,242.001 42.329,240.516 42.480 C 233.535 43.192,224.036 45.711,217.925 48.472 C 216.484 49.123,210.546 52.067,209.822 52.490 C 193.439 62.050,180.013 77.254,174.101 92.940 C 173.796 93.751,173.438 94.621,173.307 94.875 C 172.060 97.287,168.716 110.081,168.694 112.523 C 168.693 112.624,168.057 112.711,167.281 112.716 C 166.008 112.724,164.731 112.949,162.018 113.644 C 152.624 116.051,146.147 129.132,150.020 137.876 C 150.139 138.146,150.505 138.975,150.832 139.718 C 153.764 146.370,160.749 150.482,168.650 150.206 C 170.956 150.125,171.946 150.173,171.999 150.368 C 172.258 151.315,174.460 157.178,174.823 157.888 C 175.065 158.361,175.885 160.018,176.645 161.572 C 181.806 172.122,189.301 181.317,199.269 189.331 C 202.243 191.721,203.273 192.511,203.416 192.511 C 203.487 192.511,204.350 193.055,205.333 193.719 C 228.393 209.312,261.141 211.454,286.311 199.017 C 287.816 198.273,291.176 196.477,291.958 195.998 C 292.431 195.708,293.149 195.286,293.554 195.059 C 294.251 194.670,297.143 192.724,299.570 191.010 C 304.856 187.280,315.151 176.902,317.373 173.065 C 317.508 172.831,318.185 171.835,318.878 170.851 C 319.571 169.866,320.359 168.674,320.628 168.201 C 320.897 167.729,321.593 166.568,322.174 165.623 C 324.258 162.233,327.093 155.977,328.461 151.750 C 328.789 150.737,329.263 149.355,329.515 148.680 C 329.766 148.005,330.044 147.121,330.132 146.716 C 330.219 146.311,330.400 145.565,330.533 145.058 L 330.774 144.138 332.439 144.138 C 337.694 144.138,342.540 140.326,343.894 135.127 C 345.684 128.257,341.627 121.679,334.500 119.896 C 333.541 119.656,332.965 119.384,332.965 119.172 C 332.965 118.110,332.160 111.340,331.861 109.883 C 328.383 92.960,322.026 80.213,311.228 68.508 C 308.047 65.061,299.859 57.704,299.202 57.704 C 299.132 57.704,298.274 57.113,297.297 56.391 C 296.319 55.668,295.184 54.905,294.776 54.694 C 294.367 54.483,293.428 53.907,292.689 53.414 C 291.129 52.373,282.969 48.325,281.522 47.875 C 280.982 47.707,280.098 47.374,279.558 47.136 C 271.331 43.512,254.033 40.949,244.936 42.005 M258.809 43.725 C 261.234 43.949,262.791 44.195,267.526 45.101 C 270.450 45.660,275.733 47.224,279.067 48.517 C 280.688 49.146,282.400 49.807,282.873 49.986 C 284.384 50.557,289.798 53.378,292.049 54.765 C 293.246 55.504,294.585 56.329,295.024 56.599 C 298.187 58.545,303.115 62.491,306.665 65.920 C 315.114 74.083,320.718 82.312,325.742 93.934 C 328.025 99.216,330.243 107.915,331.123 115.040 C 331.682 119.563,331.690 119.507,330.448 119.709 C 324.640 120.653,320.724 124.596,319.931 130.298 C 319.147 135.931,322.299 141.352,327.493 143.306 C 328.409 143.651,329.188 143.963,329.224 143.999 C 329.336 144.109,328.041 148.883,327.689 149.662 C 327.505 150.068,327.279 150.731,327.185 151.136 C 326.273 155.080,320.840 165.642,316.788 171.350 C 297.963 197.866,266.254 210.309,233.699 203.955 C 231.976 203.618,229.821 203.110,228.911 202.825 C 224.455 201.429,221.023 200.276,220.135 199.877 C 219.595 199.634,218.103 198.971,216.820 198.403 C 212.720 196.590,207.571 193.645,204.155 191.160 C 203.598 190.755,202.891 190.258,202.583 190.055 C 197.407 186.651,188.065 177.140,184.033 171.171 C 183.631 170.576,182.924 169.526,182.462 168.838 C 179.586 164.562,176.276 158.000,174.276 152.609 C 173.126 149.508,173.085 149.729,174.948 148.938 C 179.064 147.188,183.384 143.100,184.673 139.735 C 184.909 139.118,185.277 138.281,185.490 137.876 C 185.703 137.471,185.879 136.891,185.879 136.587 L 185.881 136.034 236.832 136.034 C 270.556 136.034,287.784 135.952,287.784 135.789 C 287.784 135.627,270.576 135.523,237.017 135.482 C 186.408 135.421,186.249 135.419,186.319 134.929 C 187.701 125.150,182.336 116.449,173.161 113.588 C 172.040 113.239,170.907 112.953,170.644 112.953 C 170.097 112.953,170.041 112.489,170.401 110.913 C 170.530 110.347,170.812 108.944,171.028 107.796 C 171.721 104.108,173.819 97.162,175.217 93.923 C 176.528 90.886,178.160 87.436,178.657 86.648 C 178.984 86.130,179.251 85.615,179.251 85.504 C 179.251 85.393,179.594 84.760,180.014 84.099 C 180.434 83.437,180.964 82.559,181.191 82.147 C 181.419 81.736,182.015 80.792,182.515 80.049 C 199.915 54.231,227.965 40.876,258.809 43.725 M172.186 114.686 C 183.076 117.466,188.993 131.315,183.040 140.088 C 182.712 140.572,182.443 141.052,182.443 141.156 C 182.443 141.260,181.678 142.175,180.742 143.191 C 169.784 155.083,150.300 147.599,150.279 131.490 C 150.264 120.192,161.124 111.861,172.186 114.686 M57.210 115.657 C 51.006 116.360,47.542 119.848,47.579 125.353 C 47.611 129.995,49.737 131.716,57.730 133.565 C 64.514 135.134,65.424 135.360,65.684 135.537 C 65.820 135.629,66.447 135.895,67.079 136.129 C 73.301 138.426,73.683 146.849,67.697 149.774 C 61.667 152.721,53.162 151.395,47.636 146.644 C 46.556 145.717,46.003 146.002,46.936 147.006 C 53.481 154.050,69.598 153.343,72.277 145.894 C 74.579 139.492,71.185 135.939,60.405 133.469 C 49.982 131.080,48.123 129.641,48.423 124.190 C 48.689 119.365,51.724 116.896,57.987 116.411 C 63.082 116.016,66.429 116.862,68.945 119.180 C 69.661 119.841,70.080 120.073,70.250 119.903 C 70.604 119.549,68.440 117.659,66.710 116.812 C 64.475 115.718,60.710 115.260,57.210 115.657 M26.502 116.329 C 26.364 116.700,25.879 117.833,25.423 118.846 C 24.968 119.859,23.852 122.400,22.944 124.494 C 22.035 126.587,20.921 129.109,20.468 130.098 C 20.015 131.087,19.643 132.026,19.641 132.185 C 19.639 132.344,19.381 132.923,19.067 133.473 C 18.752 134.022,18.382 134.796,18.244 135.192 C 17.938 136.066,14.692 143.524,13.859 145.267 C 13.529 145.956,13.260 146.591,13.260 146.678 C 13.260 146.765,12.873 147.673,12.401 148.696 C 11.326 151.022,11.128 151.753,11.576 151.739 C 11.955 151.728,12.177 151.272,15.095 144.506 C 16.260 141.805,17.302 139.429,17.412 139.227 C 17.583 138.909,18.922 138.858,27.146 138.858 L 36.682 138.858 38.209 142.296 C 40.870 148.289,41.029 148.653,41.576 150.007 C 42.073 151.239,42.769 152.033,43.079 151.723 C 43.152 151.651,42.649 150.329,41.962 148.785 C 41.275 147.242,40.570 145.592,40.395 145.120 C 40.220 144.647,39.699 143.432,39.236 142.419 C 38.773 141.406,37.969 139.583,37.451 138.367 C 36.932 137.152,36.262 135.605,35.961 134.929 C 34.074 130.698,28.799 118.527,28.218 117.066 C 27.582 115.466,26.927 115.185,26.502 116.329 M75.629 116.022 C 75.629 116.341,76.557 116.390,82.503 116.390 L 89.377 116.390 89.440 134.009 C 89.495 149.477,89.548 151.627,89.871 151.627 C 90.194 151.627,90.255 149.458,90.362 134.070 L 90.485 116.513 97.422 116.448 C 103.362 116.392,104.359 116.330,104.359 116.018 C 104.359 115.700,102.532 115.654,89.994 115.654 C 77.389 115.654,75.629 115.699,75.629 116.022 M110.743 133.702 C 110.743 149.581,110.787 151.750,111.111 151.750 C 111.430 151.750,111.479 150.795,111.479 144.629 L 111.479 137.508 118.327 137.508 L 125.174 137.508 127.824 141.621 C 133.581 150.559,134.392 151.750,134.716 151.750 C 135.289 151.750,135.114 151.377,133.023 148.139 C 131.906 146.411,130.332 143.961,129.524 142.696 C 128.715 141.430,127.695 139.858,127.256 139.203 C 126.210 137.641,126.286 137.263,127.644 137.262 C 127.870 137.262,128.746 136.935,129.591 136.535 C 137.254 132.910,137.206 120.679,129.514 116.766 C 127.642 115.814,126.019 115.657,118.048 115.655 L 110.743 115.654 110.743 133.702 M289.562 131.308 L 289.626 146.961 299.754 146.961 C 306.302 146.961,309.905 146.875,309.945 146.716 C 309.985 146.556,306.557 146.448,300.123 146.406 L 290.239 146.342 290.239 130.998 C 290.239 117.489,290.195 115.654,289.869 115.654 C 289.543 115.654,289.507 117.495,289.562 131.308 M370.693 115.911 C 364.445 116.960,359.239 124.106,359.239 131.634 C 359.239 145.535,374.808 152.734,384.160 143.158 C 385.483 141.803,385.513 141.838,385.513 144.751 C 385.513 146.307,385.610 147.330,385.758 147.330 C 385.916 147.330,386.004 144.710,386.004 139.963 L 386.004 132.597 381.952 132.597 C 376.720 132.597,376.466 133.049,381.645 133.143 L 385.390 133.211 385.457 137.041 L 385.525 140.871 383.704 142.601 C 378.518 147.527,372.191 148.290,366.785 144.641 C 359.466 139.702,357.693 129.489,362.855 122.009 C 367.746 114.922,378.724 114.485,383.671 121.179 C 384.546 122.363,385.267 122.884,385.267 122.333 C 385.267 121.969,383.132 119.198,382.336 118.528 C 379.696 116.307,374.841 115.216,370.693 115.911 M128.674 117.310 C 137.200 121.582,136.306 134.051,127.305 136.396 C 125.433 136.883,112.249 136.952,111.774 136.476 C 111.441 136.143,111.334 116.865,111.664 116.532 C 111.765 116.430,115.276 116.384,119.465 116.430 L 127.083 116.513 128.674 117.310 M28.594 120.135 C 29.243 121.654,30.024 123.450,30.328 124.125 C 30.633 124.800,31.737 127.342,32.782 129.773 C 33.826 132.204,34.999 134.869,35.388 135.696 C 36.574 138.216,37.354 137.999,27.107 137.999 L 18.117 137.999 18.275 137.324 C 18.362 136.952,18.749 135.985,19.136 135.175 C 19.523 134.365,20.744 131.602,21.849 129.036 C 22.954 126.470,24.113 123.818,24.424 123.143 C 24.736 122.468,25.418 120.896,25.939 119.650 C 27.133 116.797,27.172 116.804,28.594 120.135 M334.332 121.323 C 343.673 123.034,346.012 136.126,337.862 141.077 C 334.914 142.867,330.413 143.325,328.068 142.072 C 327.723 141.887,327.001 141.502,326.464 141.216 C 325.927 140.930,324.919 140.135,324.224 139.449 C 323.085 138.323,322.728 137.718,321.520 134.860 C 320.350 132.093,321.647 127.015,324.184 124.434 C 326.916 121.654,330.366 120.596,334.332 121.323  M -25 0 L -5 0 L -5 20 L -25 20 Z M 405 0 L 425 0 L 425 20 L 405 20 Z" stroke="none" fill="#f5f5f5" fill-rule="evenodd" transform="translate(30,0)"></path></g></svg>